<svg width="24" height="24" viewBox="0 0 24 24" fill="none" xmlns="http://www.w3.org/2000/svg">
<g id="music">
<path id="Path 38" d="M8 18V6L20 3V16" stroke="#D1CCF2" stroke-linejoin="round"/>
<path id="Oval" fill-rule="evenodd" clip-rule="evenodd" d="M5.94708 20.5105C4.47942 21.0447 3.00095 20.6845 2.64482 19.7061C2.2887 18.7276 3.18978 17.5014 4.65744 16.9672C6.12511 16.433 7.60358 16.7932 7.95971 17.7716C8.31583 18.7501 7.41475 19.9763 5.94708 20.5105Z" stroke="#D1CCF2"/>
<path id="Oval_2" fill-rule="evenodd" clip-rule="evenodd" d="M17.9471 18.5105C16.4794 19.0447 15.0009 18.6845 14.6448 17.7061C14.2887 16.7276 15.1898 15.5014 16.6574 14.9672C18.1251 14.433 19.6036 14.7932 19.9597 15.7716C20.3158 16.7501 19.4147 17.9763 17.9471 18.5105Z" stroke="#D1CCF2"/>
</g>
</svg>
